<svg width="255" height="255" viewBox="0 0 255 255" fill="none" xmlns="http://www.w3.org/2000/svg">
<circle cx="127.5" cy="127.5" r="127.5" fill="#890060"/>
<path d="M127.5 0C197.916 0 255 57.0837 255 127.5C255 197.916 197.916 255 127.5 255C95.5533 255 66.3512 243.25 43.9785 223.837C43.7298 223.73 43.498 223.573 43.3018 223.362C43.1067 223.153 42.9155 222.942 42.7236 222.732C16.51 199.38 0 165.369 0 127.5C0 57.0837 57.0837 0 127.5 0ZM127.793 83.5508C126.704 84.4622 125.598 85.3725 124.474 86.2773C114.514 94.289 103.1 102.157 91.75 110.054C80.3712 117.971 69.0471 125.924 59.1406 134.175C51.6384 140.423 45.0094 146.794 39.8154 153.383C43.5138 175.025 54.5822 202.833 76.708 239.643C76.8164 239.823 76.8921 240.014 76.9385 240.208C92.371 247.142 109.485 251 127.5 251C145.663 251 162.909 247.078 178.44 240.037C200.811 202.764 211.824 174.74 215.321 153.006C210.129 146.42 203.503 140.053 196.005 133.808C186.098 125.557 174.774 117.604 163.396 109.687C152.046 101.789 140.631 93.9218 130.672 85.9102C129.698 85.1271 128.74 84.3388 127.793 83.5508ZM36.5713 157.812C36.1226 158.474 35.688 159.139 35.2705 159.807C29.7232 168.68 27.0149 177.922 28.3271 187.821C29.6158 197.542 34.8168 208.156 45.5332 219.879C53.0968 226.595 61.4917 232.394 70.543 237.107C51.2926 204.375 40.783 178.614 36.5713 157.812ZM218.593 157.473C214.567 178.247 204.199 204.013 184.997 236.826C193.538 232.325 201.486 226.852 208.696 220.555C208.76 220.455 208.833 220.359 208.916 220.27C220.105 208.247 225.502 197.383 226.818 187.454C228.131 177.554 225.422 168.313 219.875 159.439C219.463 158.781 219.035 158.126 218.593 157.473ZM82.0615 154.344C82.7144 153.997 83.5052 154.038 84.1182 154.451C90.636 158.848 95.767 163.331 99.2686 167.828C102.77 163.331 107.902 158.848 114.42 154.451C115.033 154.038 115.824 153.997 116.477 154.344C117.13 154.691 117.538 155.37 117.538 156.109V211C117.538 212.105 116.643 213 115.538 213C114.434 213 113.538 212.104 113.538 211V159.958C108.217 163.86 104.257 167.678 101.653 171.318C101.961 171.842 102.247 172.364 102.508 172.888C104.065 176.007 104.815 179.166 104.603 182.3C104.39 185.443 103.218 188.428 101.139 191.2C100.688 191.801 99.9637 192.075 99.2686 191.98C98.5737 192.074 97.85 191.801 97.3994 191.2C95.3205 188.428 94.1484 185.443 93.9355 182.3C93.7234 179.166 94.4736 176.007 96.0303 172.888C96.2913 172.365 96.5765 171.842 96.8838 171.318C94.2796 167.678 90.3206 163.86 85 159.958V211C85 212.105 84.1045 213 83 213C81.8955 213 81 212.105 81 211V156.109C81 155.37 81.4086 154.691 82.0615 154.344ZM142.365 154.344C143.018 153.997 143.809 154.038 144.422 154.451C150.94 158.848 156.071 163.331 159.572 167.828C163.074 163.331 168.206 158.848 174.724 154.451C175.337 154.038 176.127 153.997 176.78 154.344C177.433 154.691 177.842 155.37 177.842 156.109V211C177.842 212.105 176.946 213 175.842 213C174.737 213 173.842 212.104 173.842 211V159.958C168.521 163.86 164.561 167.678 161.957 171.318C162.264 171.842 162.55 172.364 162.812 172.888C164.368 176.007 165.118 179.166 164.906 182.3C164.693 185.443 163.521 188.428 161.442 191.2C160.992 191.801 160.267 192.075 159.572 191.98C158.877 192.074 158.154 191.801 157.703 191.2C155.624 188.428 154.452 185.443 154.239 182.3C154.027 179.166 154.777 176.007 156.334 172.888C156.595 172.365 156.88 171.842 157.188 171.318C154.583 167.678 150.624 163.86 145.304 159.958V211C145.304 212.105 144.408 213 143.304 213C142.199 213 141.304 212.105 141.304 211V156.109C141.304 155.37 141.712 154.691 142.365 154.344ZM129.421 125.5C130.249 125.5 130.921 126.172 130.921 127V211C130.921 211.828 130.249 212.5 129.421 212.5C128.593 212.5 127.921 211.828 127.921 211V127C127.921 126.172 128.593 125.5 129.421 125.5ZM138.351 4.4707C148.521 14.4839 154.004 23.9944 155.627 33.1973C156.744 39.5316 156.007 45.5831 153.869 51.3857C160.375 57.2004 167.648 62.4694 175.021 67.8691C182.577 73.4037 190.228 79.0715 197.02 85.501C210.684 98.437 220.946 114.535 220.59 139.173C220.532 143.193 220.188 147.434 219.536 151.92C220.879 153.697 222.127 155.496 223.267 157.319C229.18 166.778 232.247 176.946 230.784 187.98C230.259 191.943 229.15 195.98 227.412 200.106C242.247 179.727 251 154.636 251 127.5C251 62.949 201.476 9.96552 138.351 4.4707ZM116.398 4.49219C53.3927 10.1054 4 63.0346 4 127.5C4 154.621 12.7426 179.699 27.5625 200.072C25.9209 196.086 24.8695 192.181 24.3613 188.348C22.8986 177.313 25.9658 167.145 31.8789 157.687C33.0124 155.873 34.2517 154.084 35.5859 152.316C34.8241 147.416 34.4282 142.805 34.3652 138.453C34.009 113.816 44.2707 97.7172 57.9355 84.7812C64.7273 78.3519 72.3778 72.6849 79.9346 67.1504C87.3254 61.7374 94.6147 56.4546 101.133 50.623C99.1055 44.9409 98.427 39.0208 99.5186 32.8301C101.12 23.7469 106.481 14.3623 116.398 4.49219ZM99.2686 175.396C98.2144 177.738 97.7859 179.948 97.9268 182.029C98.033 183.598 98.4662 185.155 99.2686 186.698C100.071 185.155 100.505 183.598 100.611 182.029C100.752 179.948 100.323 177.738 99.2686 175.396ZM159.572 175.396C158.518 177.738 158.09 179.948 158.23 182.029C158.337 183.598 158.77 185.155 159.572 186.698C160.375 185.155 160.809 183.598 160.915 182.029C161.056 179.948 160.627 177.738 159.572 175.396ZM102.751 54.5273C96.3265 60.1526 89.2552 65.2761 82.2959 70.373C74.7202 75.9215 67.267 81.4504 60.6846 87.6816C47.6009 100.067 38.0302 115.154 38.3662 138.388C38.4106 141.453 38.6288 144.665 39.0342 148.035C44.0463 142.174 50.0393 136.55 56.5811 131.102C66.6405 122.724 78.1035 114.676 89.4658 106.771C100.857 98.8446 112.139 91.0659 121.966 83.1611C122.892 82.4164 123.801 81.6683 124.697 80.9229C117.286 74.4822 110.913 67.8596 106.372 60.9434C104.99 58.839 103.776 56.7003 102.751 54.5273ZM152.219 55.2607C151.231 57.3077 150.077 59.3246 148.773 61.3105C144.321 68.0924 138.106 74.5916 130.879 80.9141C131.636 81.5401 132.402 82.1684 133.18 82.7939C143.006 90.6987 154.289 98.4774 165.68 106.403C177.042 114.309 188.505 122.357 198.564 130.734C205.081 136.161 211.051 141.764 216.052 147.601C216.373 144.649 216.55 141.821 216.589 139.107C216.925 115.873 207.354 100.786 194.271 88.4004C187.688 82.1691 180.235 76.6403 172.659 71.0918C165.705 65.9989 158.639 60.8807 152.219 55.2607ZM127.409 15.3379C124.393 30.7489 116.136 42.0808 105.862 51.7119C106.893 54.0739 108.185 56.417 109.716 58.748C114.079 65.3944 120.329 71.8734 127.783 78.3057C135.051 71.9935 141.149 65.6356 145.43 59.1152C146.879 56.9075 148.113 54.6883 149.115 52.4531C138.672 42.6682 130.309 31.1281 127.409 15.3379ZM130.322 4.03223C130.642 23.7567 139.023 37.165 150.662 48.4102C152.156 43.6801 152.564 38.8599 151.688 33.8916C150.135 25.081 144.486 15.4646 132.938 4.83887C132.708 4.62635 132.54 4.37146 132.433 4.09766C131.731 4.07008 131.027 4.04803 130.322 4.03223ZM124.616 4.03418C123.916 4.05023 123.217 4.07195 122.52 4.09961C122.432 4.2325 122.329 4.35897 122.207 4.47168C110.659 15.0975 105.011 24.7137 103.457 33.5244C102.607 38.3479 102.967 43.0315 104.355 47.6289C115.819 36.534 124.107 23.3298 124.616 4.03418Z" fill="white"/>
</svg>
